# xmcd CD database file
#
# Track frame offsets:
#	150
#	15059
#	29457
#	45397
#	58943
#	73618
#	88733
#	102740
#	122224
#	138263
#	151502
#	167087
#	180053
#	193405
#	209855
#	222251
#	239281
#
# Disc length: 3408 seconds
#
# Revision: 1
# Processed by: cddbd v1.5.2PL0 Copyright (c) Steve Scherf et al.
# Submitted via: CDex 1.70beta2
#
DISCID=ed0d4e11
DTITLE=Various Artist - NU COUNTRY TRAXX 194
DYEAR=2015
DGENRE=Country
TTITLE0=Chris Young - I'm Comin Over
TTITLE1=Sam Hunt - House Party
TTITLE2=Steven Tyler - Love Is Your Name
TTITLE3=Randy Houser - We Went
TTITLE4=Hunter Hayes - 21
TTITLE5=Lee Brice - That Don't Sound Like You
TTITLE6=Craig Campbell - Tomorrow Tonight
TTITLE7=Bryan Mayer - This Is Me
TTITLE8=Kristian Bush - Light Me Up
TTITLE9=Blaise Streets - Bring On The Sunshine
TTITLE10=Bret Michaels - Girls On Bars
TTITLE11=Jackie Lee - Headphones
TTITLE12=The Cadillac Three - White Lightning
TTITLE13=Boone - Sunshine and Summer Girls
TTITLE14=Olivia Lane - You Part 2
TTITLE15=Elvis Carden - Junk Man
TTITLE16=Lavendine - Maybe I Might
EXTD=YEAR: 2015
EXTT0=
EXTT1=
EXTT2=
EXTT3=
EXTT4=
EXTT5=
EXTT6=
EXTT7=
EXTT8=
EXTT9=
EXTT10=
EXTT11=
EXTT12=
EXTT13=
EXTT14=
EXTT15=
EXTT16=
PLAYORDER=
